<svg height="400" width="400" xmlns="http://www.w3.org/2000/svg"><g fill="none" fill-rule="evenodd"><path d="M0 0h400v400H0z" fill="#41c9b4"/><path d="M180.389 169.697v-14.379c0-2.62.135-3.494.539-4.838 1.078-3.695 4.718-6.45 9.03-6.45s7.952 2.822 9.03 6.45c.405 1.344.54 2.218.54 4.838v22.173c0 1.344 0 2.687-.27 3.897-.74 3.359-3.773 6.384-7.143 7.122-1.213.269-2.561.269-3.91.269h-22.238c-2.628 0-3.505-.135-4.853-.538-3.64-1.075-6.47-4.703-6.47-9.003s2.83-7.929 6.47-9.004c1.348-.403 2.225-.537 4.853-.537zm79.254 100.518H140.357v-104.75c0-1.345.472-2.487 1.416-3.428l30.933-30.841c.943-.94 2.089-1.41 3.437-1.41h83.5zm13.546-164.08c-.606-.068-1.415-.135-2.965-.135h-97.25a33.78 33.78 0 00-2.896.134c-4.449.403-8.425 2.486-11.592 5.644l-36.19 36.082c-3.167 3.159-5.257 7.122-5.66 11.557a32.893 32.893 0 00-.136 2.888v118.458c0 1.546.067 2.353.136 2.957.538 5.04 5.12 9.607 10.175 10.145.607.068 1.415.135 2.965.135h140.448c1.55 0 2.359-.067 2.965-.135 5.055-.538 9.637-5.106 10.177-10.145.066-.604.134-1.411.134-2.957V119.237c0-1.546-.068-2.353-.134-2.957-.54-5.04-5.122-9.608-10.177-10.146z" fill="#fff"/></g></svg>